# xmcd
#
# Track frame offsets: 
#        150
#        13595
#        25444
#        37508
#        49309
#        60232
#        72857
#        83794
#        95658
#        108430
#        120635
#        131982
#
# Disc length: 1919 seconds
#
# Revision: 0
# Processed by: cddbd v1.5.2PL0 Copyright (c) Steve Scherf et al.
# Submitted via: ExactAudioCopy v0.99pb5
#
DISCID=9a077d0c
DTITLE=Gene Chandler - The Girl Don't Care
DYEAR=1900
DGENRE=Soul
TTITLE0=Nothing Can Stop Me
TTITLE1=You Cant Hurt Me No More
TTITLE2=(I'm Just A) Fool For You 
TTITLE3=Here Comes The Tears
TTITLE4=(Gonna Be) Good Times
TTITLE5=The Girl Don't Care
TTITLE6=To Choose
TTITLE7=Bet You Never Thought
TTITLE8=Baby That's Love
TTITLE9=Buddy Ain't It A Shame
TTITLE10=No One Can Love You ( Like I Do)
TTITLE11=My Love
EXTD=
EXTT0=
EXTT1=
EXTT2=
EXTT3=
EXTT4=
EXTT5=
EXTT6=
EXTT7=
EXTT8=
EXTT9=
EXTT10=
EXTT11=
PLAYORDER=
